<?xml version="1.0" encoding="utf-8"?>
<svg viewBox="9.702 20.305 181.502 62.393" xmlns="http://www.w3.org/2000/svg">
  <path class="st0" d="M 76.427 41.762 L 77.17 41.762 C 77.727 41.762 78.173 42.193 78.173 42.733 L 78.173 59.154 C 78.173 59.694 77.727 60.125 77.17 60.125 L 76.427 60.125 C 75.871 60.125 75.425 59.694 75.425 59.154 L 75.425 42.696 C 75.462 42.193 75.908 41.762 76.427 41.762 Z" style="fill: rgb(3, 52, 119);" transform="matrix(0.9999999999999999, 0, 0, 0.9999999999999999, 0, 0)"/>
  <path class="st0" d="M 67.517 41.762 L 68.258 41.762 C 68.816 41.762 69.262 42.193 69.262 42.733 L 69.262 59.154 C 69.262 59.694 68.816 60.125 68.258 60.125 L 67.517 60.125 C 66.96 60.125 66.514 59.694 66.514 59.154 L 66.514 42.696 C 66.551 42.193 66.996 41.762 67.517 41.762 Z" style="fill: rgb(3, 52, 119);" transform="matrix(0.9999999999999999, 0, 0, 0.9999999999999999, 0, 0)"/>
  <path class="st0" d="M 58.197 41.762 L 58.94 41.762 C 59.497 41.762 59.942 42.193 59.942 42.733 L 59.942 59.154 C 59.942 59.694 59.497 60.125 58.94 60.125 L 58.197 60.125 C 57.639 60.125 57.194 59.694 57.194 59.154 L 57.194 42.696 C 57.232 42.193 57.678 41.762 58.197 41.762 Z" style="fill: rgb(3, 52, 119);" transform="matrix(0.9999999999999999, 0, 0, 0.9999999999999999, 0, 0)"/>
  <path class="st0" d="M 49.323 41.762 L 50.066 41.762 C 50.623 41.762 51.068 42.193 51.068 42.733 L 51.068 59.154 C 51.068 59.694 50.623 60.125 50.066 60.125 L 49.323 60.125 C 48.766 60.125 48.321 59.694 48.321 59.154 L 48.321 42.696 C 48.357 42.193 48.803 41.762 49.323 41.762 Z" style="fill: rgb(3, 52, 119);" transform="matrix(0.9999999999999999, 0, 0, 0.9999999999999999, 0, 0)"/>
  <path class="st0" d="M 41.079 37.116 L 41.822 37.116 C 42.379 37.116 42.825 37.547 42.825 38.087 L 42.825 54.508 C 42.825 55.049 42.379 55.48 41.822 55.48 L 41.079 55.48 C 40.523 55.48 40.078 55.049 40.078 54.508 L 40.078 38.087 C 40.078 37.547 40.523 37.116 41.079 37.116 Z" style="fill: rgb(3, 52, 119);" transform="matrix(0.9999999999999999, 0, 0, 0.9999999999999999, 0, 0)"/>
  <path class="st0" d="M 33.024 33.623 L 33.765 33.623 C 34.323 33.623 34.768 34.055 34.768 34.594 L 34.768 51.015 C 34.768 51.555 34.323 51.988 33.765 51.988 L 33.024 51.988 C 32.466 51.988 32.021 51.555 32.021 51.015 L 32.021 34.56 C 32.021 34.055 32.466 33.623 33.024 33.623 Z" style="fill: rgb(3, 52, 119);" transform="matrix(0.9999999999999999, 0, 0, 0.9999999999999999, 0, 0)"/>
  <path class="st0" d="M 24.966 28.797 L 25.708 28.797 C 26.264 28.797 26.711 29.229 26.711 29.769 L 26.711 46.37 C 26.711 46.91 26.264 47.343 25.708 47.343 L 24.966 47.343 C 24.41 47.343 23.963 46.91 23.963 46.37 L 23.963 29.733 C 24 29.229 24.446 28.797 24.966 28.797 Z" style="fill: rgb(3, 52, 119);" transform="matrix(0.9999999999999999, 0, 0, 0.9999999999999999, 0, 0)"/>
  <path class="st0" d="M 16.351 25.268 L 17.094 25.268 C 17.65 25.268 18.097 25.7 18.097 26.241 L 18.097 42.338 C 18.097 42.877 17.65 43.309 17.094 43.309 L 16.351 43.309 C 15.794 43.309 15.349 42.877 15.349 42.338 L 15.349 26.204 C 15.386 25.7 15.794 25.268 16.351 25.268 Z" style="fill: rgb(3, 52, 119);" transform="matrix(0.9999999999999999, 0, 0, 0.9999999999999999, 0, 0)"/>
  <path class="st1" d="M 82.034 60.09 L 81.143 60.09 C 80.661 60.09 80.251 59.694 80.251 59.225 L 80.251 42.626 C 80.251 42.157 80.661 41.762 81.143 41.762 L 82.034 41.762 C 82.517 41.762 82.926 42.157 82.926 42.626 L 82.926 59.225 C 82.926 59.694 82.517 60.09 82.034 60.09 Z" style="fill: rgb(51, 174, 208);" transform="matrix(0.9999999999999999, 0, 0, 0.9999999999999999, 0, 0)"/>
  <path class="st1" d="M 72.79 60.09 L 71.898 60.09 C 71.415 60.09 71.008 59.694 71.008 59.225 L 71.008 42.626 C 71.008 42.157 71.415 41.762 71.898 41.762 L 72.79 41.762 C 73.272 41.762 73.681 42.157 73.681 42.626 L 73.681 59.225 C 73.717 59.694 73.309 60.09 72.79 60.09 Z" style="fill: rgb(51, 174, 208);" transform="matrix(0.9999999999999999, 0, 0, 0.9999999999999999, 0, 0)"/>
  <path class="st1" d="M 63.915 60.09 L 63.023 60.09 C 62.541 60.09 62.133 59.694 62.133 59.225 L 62.133 42.626 C 62.133 42.157 62.541 41.762 63.023 41.762 L 63.915 41.762 C 64.399 41.762 64.806 42.157 64.806 42.626 L 64.806 59.225 C 64.806 59.694 64.399 60.09 63.915 60.09 Z" style="fill: rgb(51, 174, 208);" transform="matrix(0.9999999999999999, 0, 0, 0.9999999999999999, 0, 0)"/>
  <path class="st1" d="M 46.019 61.566 L 45.127 61.566 C 44.644 61.566 44.237 61.171 44.237 60.702 L 44.237 44.101 C 44.237 43.633 44.644 43.237 45.127 43.237 L 46.019 43.237 C 46.501 43.237 46.91 43.633 46.91 44.101 L 46.91 60.702 C 46.91 61.171 46.538 61.566 46.019 61.566 Z" style="fill: rgb(51, 174, 208);" transform="matrix(0.9999999999999999, 0, 0, 0.9999999999999999, 0, 0)"/>
  <path class="st1" d="M 37.628 64.843 L 36.736 64.843 C 36.253 64.843 35.845 64.447 35.845 63.978 L 35.845 47.379 C 35.845 46.91 36.253 46.513 36.736 46.513 L 37.628 46.513 C 38.11 46.513 38.518 46.91 38.518 47.379 L 38.518 63.978 C 38.555 64.447 38.147 64.843 37.628 64.843 Z" style="fill: rgb(51, 174, 208);" transform="matrix(0.9999999999999999, 0, 0, 0.9999999999999999, 0, 0)"/>
  <path class="st1" d="M 29.496 67.905 L 28.604 67.905 C 28.122 67.905 27.713 67.508 27.713 67.041 L 27.713 50.44 C 27.713 49.971 28.122 49.574 28.604 49.574 L 29.496 49.574 C 29.978 49.574 30.386 49.971 30.386 50.44 L 30.386 67.041 C 30.423 67.508 30.016 67.905 29.496 67.905 Z" style="fill: rgb(51, 174, 208);" transform="matrix(0.9999999999999999, 0, 0, 0.9999999999999999, 0, 0)"/>
  <path class="st1" d="M 21.438 70.821 L 20.547 70.821 C 20.065 70.821 19.655 70.424 19.655 69.956 L 19.655 53.681 C 19.655 53.212 20.065 52.816 20.547 52.816 L 21.438 52.816 C 21.921 52.816 22.33 53.212 22.33 53.681 L 22.33 69.956 C 22.33 70.461 21.921 70.821 21.438 70.821 Z" style="fill: rgb(51, 174, 208);" transform="matrix(0.9999999999999999, 0, 0, 0.9999999999999999, 0, 0)"/>
  <path class="st1" d="M 13.121 75.934 L 12.23 75.934 C 11.747 75.934 11.339 75.538 11.339 75.07 L 11.339 58.469 C 11.339 58.001 11.747 57.605 12.23 57.605 L 13.121 57.605 C 13.604 57.605 14.012 58.001 14.012 58.469 L 14.012 75.07 C 14.012 75.538 13.604 75.934 13.121 75.934 Z" style="fill: rgb(51, 174, 208);" transform="matrix(0.9999999999999999, 0, 0, 0.9999999999999999, 0, 0)"/>
  <path class="st1" d="M 54.818 60.09 L 53.927 60.09 C 53.445 60.09 53.035 59.694 53.035 59.225 L 53.035 42.626 C 53.035 42.157 53.445 41.762 53.927 41.762 L 54.818 41.762 C 55.3 41.762 55.709 42.157 55.709 42.626 L 55.709 59.225 C 55.709 59.694 55.3 60.09 54.818 60.09 Z" style="fill: rgb(51, 174, 208);" transform="matrix(0.9999999999999999, 0, 0, 0.9999999999999999, 0, 0)"/>
  <text style="fill: rgb(51, 51, 51); font-family: Arial, sans-serif; font-size: 24.9px; font-weight: 700; white-space: pre;" x="83.906" y="59.564" transform="matrix(0.9999999999999999, 0, 0, 0.9999999999999999, 0, 0)">DevtekAI</text>
</svg>