<?xml version="1.0" encoding="utf-8"?>
<!-- Generator: Adobe Illustrator 27.0.0, SVG Export Plug-In . SVG Version: 6.00 Build 0)  -->
<svg version="1.1" id="Layer_1" xmlns="http://www.w3.org/2000/svg" xmlns:xlink="http://www.w3.org/1999/xlink" x="0px" y="0px"
	 viewBox="0 0 240 160" style="enable-background:new 0 0 240 160;" xml:space="preserve">
<style type="text/css">
	.st0{fill:#033477;enable-background:new    ;}
	.st1{fill:#33AED0;}
</style>
<path class="st0" d="M218.7,56.4h2c1.5,0,2.7,1.2,2.7,2.7v45.6c0,1.5-1.2,2.7-2.7,2.7h-2c-1.5,0-2.7-1.2-2.7-2.7V59
	C216.1,57.6,217.3,56.4,218.7,56.4z"/>
<path class="st0" d="M194.2,56.4h2c1.5,0,2.7,1.2,2.7,2.7v45.6c0,1.5-1.2,2.7-2.7,2.7h-2c-1.5,0-2.7-1.2-2.7-2.7V59
	C191.6,57.6,192.8,56.4,194.2,56.4z"/>
<path class="st0" d="M170.2,56.4h2c1.5,0,2.7,1.2,2.7,2.7v45.6c0,1.5-1.2,2.7-2.7,2.7h-2c-1.5,0-2.7-1.2-2.7-2.7V59
	C167.6,57.6,168.8,56.4,170.2,56.4z"/>
<path class="st0" d="M145.1,56.4h2c1.5,0,2.7,1.2,2.7,2.7v45.6c0,1.5-1.2,2.7-2.7,2.7h-2c-1.5,0-2.7-1.2-2.7-2.7V59
	C142.5,57.6,143.7,56.4,145.1,56.4z"/>
<path class="st0" d="M121.2,56.4h2c1.5,0,2.7,1.2,2.7,2.7v45.6c0,1.5-1.2,2.7-2.7,2.7h-2c-1.5,0-2.7-1.2-2.7-2.7V59
	C118.6,57.6,119.8,56.4,121.2,56.4z"/>
<path class="st0" d="M99,43.5h2c1.5,0,2.7,1.2,2.7,2.7v45.6c0,1.5-1.2,2.7-2.7,2.7h-2c-1.5,0-2.7-1.2-2.7-2.7V46.2
	C96.3,44.7,97.5,43.5,99,43.5z"/>
<path class="st0" d="M77.3,33.8h2c1.5,0,2.7,1.2,2.7,2.7v45.6c0,1.5-1.2,2.7-2.7,2.7h-2c-1.5,0-2.7-1.2-2.7-2.7V36.4
	C74.6,35,75.8,33.8,77.3,33.8z"/>
<path class="st0" d="M55.6,20.4h2c1.5,0,2.7,1.2,2.7,2.7v46.1c0,1.5-1.2,2.7-2.7,2.7h-2c-1.5,0-2.7-1.2-2.7-2.7V23
	C53,21.6,54.2,20.4,55.6,20.4z"/>
<path class="st0" d="M32.4,10.6h2c1.5,0,2.7,1.2,2.7,2.7V58c0,1.5-1.2,2.7-2.7,2.7h-2c-1.5,0-2.7-1.2-2.7-2.7V13.2
	C29.8,11.8,30.9,10.6,32.4,10.6z"/>
<path class="st1" d="M209.3,107.3h-2.4c-1.3,0-2.4-1.1-2.4-2.4V58.8c0-1.3,1.1-2.4,2.4-2.4h2.4c1.3,0,2.4,1.1,2.4,2.4v46.1
	C211.7,106.2,210.6,107.3,209.3,107.3z"/>
<path class="st1" d="M184.4,107.3H182c-1.3,0-2.4-1.1-2.4-2.4V58.8c0-1.3,1.1-2.4,2.4-2.4h2.4c1.3,0,2.4,1.1,2.4,2.4v46.1
	C186.9,106.2,185.8,107.3,184.4,107.3z"/>
<path class="st1" d="M160.5,107.3h-2.4c-1.3,0-2.4-1.1-2.4-2.4V58.8c0-1.3,1.1-2.4,2.4-2.4h2.4c1.3,0,2.4,1.1,2.4,2.4v46.1
	C162.9,106.2,161.8,107.3,160.5,107.3z"/>
<path class="st1" d="M112.3,111.4h-2.4c-1.3,0-2.4-1.1-2.4-2.4V62.9c0-1.3,1.1-2.4,2.4-2.4h2.4c1.3,0,2.4,1.1,2.4,2.4V109
	C114.7,110.3,113.7,111.4,112.3,111.4z"/>
<path class="st1" d="M89.7,120.5h-2.4c-1.3,0-2.4-1.1-2.4-2.4V72c0-1.3,1.1-2.4,2.4-2.4h2.4c1.3,0,2.4,1.1,2.4,2.4v46.1
	C92.2,119.4,91.1,120.5,89.7,120.5z"/>
<path class="st1" d="M67.8,129h-2.4c-1.3,0-2.4-1.1-2.4-2.4V80.5c0-1.3,1.1-2.4,2.4-2.4h2.4c1.3,0,2.4,1.1,2.4,2.4v46.1
	C70.3,127.9,69.2,129,67.8,129z"/>
<path class="st1" d="M46.1,137.1h-2.4c-1.3,0-2.4-1.1-2.4-2.4V89.5c0-1.3,1.1-2.4,2.4-2.4h2.4c1.3,0,2.4,1.1,2.4,2.4v45.2
	C48.5,136.1,47.4,137.1,46.1,137.1z"/>
<path class="st1" d="M23.7,151.3h-2.4c-1.3,0-2.4-1.1-2.4-2.4v-46.1c0-1.3,1.1-2.4,2.4-2.4h2.4c1.3,0,2.4,1.1,2.4,2.4v46.1
	C26.1,150.2,25,151.3,23.7,151.3z"/>
<path class="st1" d="M136,107.3h-2.4c-1.3,0-2.4-1.1-2.4-2.4V58.8c0-1.3,1.1-2.4,2.4-2.4h2.4c1.3,0,2.4,1.1,2.4,2.4v46.1
	C138.4,106.2,137.3,107.3,136,107.3z"/>
</svg>
